<svg width="45" height="44" viewBox="0 0 45 44" fill="none" xmlns="http://www.w3.org/2000/svg">
<path d="M17.2512 39.515C15.6054 39.515 14.234 38.9836 13.1369 37.9207C12.0397 36.8579 11.4912 35.5293 11.4912 33.935C11.4912 33.6988 11.514 33.3814 11.5597 32.9829C11.6054 32.5843 11.5978 32.3555 11.5369 32.2964C11.4759 32.2374 11.2397 32.23 10.8283 32.2743C10.4169 32.3186 10.0893 32.3407 9.84545 32.3407C8.19973 32.3407 6.82831 31.8093 5.73116 30.7464C4.63402 29.6836 4.08545 28.355 4.08545 26.7607C4.08545 25.1664 4.63402 23.8379 5.73116 22.775C6.82831 21.7121 8.19973 21.1807 9.84545 21.1807C10.9426 21.1807 11.8797 21.3726 12.6569 21.7564C13.434 22.1402 14.0207 22.5093 14.4169 22.8636L23.4683 14.095C23.1331 13.7112 22.7597 13.1429 22.3483 12.39C21.9369 11.6371 21.7312 10.7293 21.7312 9.66643C21.7312 8.07214 22.2797 6.74357 23.3769 5.68071C24.474 4.61785 25.8454 4.08643 27.4912 4.08643C29.1369 4.08643 30.5083 4.61785 31.6054 5.68071C32.7026 6.74357 33.2512 8.07214 33.2512 9.66643C33.2512 9.90262 33.2283 10.22 33.1826 10.6186C33.1369 11.0171 33.1445 11.246 33.2054 11.305C33.2664 11.364 33.5026 11.3714 33.914 11.3271C34.3254 11.2829 34.6531 11.2607 34.8969 11.2607C36.5426 11.2607 37.914 11.7921 39.0112 12.855C40.1083 13.9179 40.6569 15.2464 40.6569 16.8407C40.6569 18.435 40.1083 19.7636 39.0112 20.8264C37.914 21.8893 36.5426 22.4207 34.8969 22.4207C33.7997 22.4207 32.8626 22.2214 32.0854 21.8229C31.3083 21.4243 30.7216 21.0626 30.3254 20.7379L21.274 29.5064C21.6397 29.8902 22.0207 30.4586 22.4169 31.2114C22.8131 31.9643 23.0112 32.8721 23.0112 33.935C23.0112 35.5293 22.4626 36.8579 21.3654 37.9207C20.2683 38.9836 18.8969 39.515 17.2512 39.515Z" fill="#37474F"/>
</svg>
