<svg width="300" height="300" viewBox="0 0 300 300" fill="none" xmlns="http://www.w3.org/2000/svg">
<rect width="300" height="300" rx="150" fill="#181818"/>
<path d="M137 72.0526C134.278 71.1196 130.876 70.0532 126.793 69.1201C117.267 66.9874 107.742 64.3215 98.0795 62.722C87.0567 60.9891 76.0338 62.3221 65.5553 66.5875C54.6685 71.1196 46.7756 79.2505 41.0601 89.5143C39.0188 93.1132 37.3858 96.7122 36.2971 100.444C36.2971 100.444 32.895 108.176 33.7115 119.239C33.7115 119.639 33.7115 120.039 33.7115 120.439C33.7115 120.972 33.8476 121.505 33.9837 121.905C34.528 126.437 35.8889 131.502 38.4745 136.701C41.3322 142.432 47.456 145.898 53.9881 145.498C73.9926 144.032 101.754 150.697 104.748 197.083C105.156 203.615 108.014 209.88 112.777 214.545L116.587 218.41C116.723 218.677 116.995 218.81 117.267 219.077C118.084 219.877 118.764 220.543 119.581 221.343C127.882 229.341 134.55 235.739 137.816 238.538C140.402 240.804 144.484 238.938 144.484 235.339V83.1161C144.62 78.0509 141.491 73.6522 137 72.0526Z" fill="#2EC5B6"/>
<path d="M191.016 190.68C177.815 173.085 177.271 151.358 189.519 133.896C195.098 125.898 204.08 120.7 213.333 120.033C222.315 119.367 230.888 122.832 237.42 129.764C242.864 135.495 247.219 141.627 251.437 147.625C252.798 149.491 254.159 151.358 255.384 153.224C255.792 152.691 256.2 152.157 256.608 151.624C256.608 151.491 256.744 151.491 256.744 151.358L263.821 139.628C265.454 135.629 266.407 131.363 266.407 127.098C266.407 126.698 266.407 126.298 266.407 125.898C266.543 116.301 265.046 106.837 261.099 97.7729C253.478 79.9114 239.734 67.7815 220.138 61.7833C206.393 57.5178 192.104 57.2512 178.224 61.65C169.65 64.4492 162.438 69.3811 157.267 76.7123C152.64 83.1105 151.279 90.1751 151.279 97.7729C151.279 119.767 151.279 141.76 151.279 163.754C151.279 171.618 151.279 179.483 151.279 187.347C151.279 202.81 151.279 218.272 151.279 233.734C151.279 239.466 154.817 241.998 161.077 241.465C164.207 241.198 166.792 239.999 169.378 238.533C182.306 230.935 194.826 222.937 207.21 214.673C208.843 213.606 210.476 212.54 211.973 211.474C203.399 204.809 196.595 198.144 191.016 190.68Z" fill="#FB7043"/>
</svg>
