<svg width="35" height="35" viewBox="0 0 35 35" fill="none" xmlns="http://www.w3.org/2000/svg">
<circle cx="17.5" cy="17.5" r="17.5" fill="#F7DDBC"/>
<path d="M16.6247 12.5L12.499 19.375H16.6247V23.5L20.749 16.625H16.6247V12.5Z" fill="#FB7043"/>
<path d="M9.06181 24.875H25.5618C26.701 24.8743 27.625 23.9517 27.625 22.8125V20.75H28.3118C28.4926 20.75 28.6707 20.6764 28.7986 20.5486C28.9264 20.4207 29 20.2433 29 20.0625V15.9375C29 15.7567 28.9264 15.5793 28.7979 15.4514C28.67 15.3236 28.4926 15.25 28.3118 15.25H27.625V13.1875C27.625 12.0483 26.701 11.1257 25.5618 11.125H9.06181C7.92194 11.1257 7 12.0483 7 13.1875V22.8125C7 23.9517 7.92194 24.8743 9.06181 24.875ZM8.375 13.1875C8.375 12.808 8.68231 12.5007 9.06181 12.5H25.5618C25.9406 12.5007 26.25 12.808 26.25 13.1875V15.9375V20.0625V22.8125C26.25 23.192 25.9406 23.4993 25.5618 23.5H9.06181C8.68231 23.4993 8.375 23.192 8.375 22.8125V13.1875Z" fill="#FB7043"/>
</svg>
