<svg width="35" height="35" viewBox="0 0 35 35" fill="none" xmlns="http://www.w3.org/2000/svg">
<circle cx="17.5" cy="17.5" r="17.5" fill="#F7DDBC"/>
<path d="M28.7556 6.24444C28.4296 5.91852 27.9407 5.91852 27.6148 6.24444L21.6667 12.1926L20.6074 11.1333C20.2815 10.8074 19.7926 10.8074 19.4667 11.1333L11.8889 18.7111L10.0148 16.837C9.68889 16.5111 9.2 16.5111 8.87407 16.837C8.54815 17.163 8.54815 17.6519 8.87407 17.9778L12.3778 21.4815L9.03704 24.8222L8.38519 24.1704C8.05926 23.8444 7.57037 23.8444 7.24444 24.1704C6.91852 24.4963 6.91852 24.9852 7.24444 25.3111L9.68889 27.7556C9.85185 27.9185 10.0148 28 10.2593 28C10.5037 28 10.6667 27.9185 10.8296 27.7556C11.1556 27.4296 11.1556 26.9407 10.8296 26.6148L10.1778 25.963L13.5185 22.6222L17.0222 26.1259C17.1852 26.2889 17.4296 26.3704 17.5926 26.3704C17.7556 26.3704 18 26.2889 18.163 26.1259C18.4889 25.8 18.4889 25.3111 18.163 24.9852L16.2889 23.1111L23.8667 15.5333C24.1926 15.2074 24.1926 14.7185 23.8667 14.3926L22.8074 13.3333L28.7556 7.38519C29.0815 7.05926 29.0815 6.57037 28.7556 6.24444Z" fill="#FB7043"/>
</svg>
