<svg width="35" height="35" viewBox="0 0 35 35" fill="none" xmlns="http://www.w3.org/2000/svg">
<circle cx="17.5" cy="17.5" r="17.5" fill="#F7DDBC"/>
<path d="M14.0542 25.0421L11.2992 22.2871L6 27.5864L6.46168 28.048C7.73129 29.3176 9.78374 29.3176 11.0533 28.048L14.0542 25.0421ZM10.6368 27.1548C10.135 27.6566 9.46759 27.9326 8.755 27.9326C8.55929 27.9326 8.40373 27.777 8.40373 27.5813C8.40373 27.3856 8.55929 27.2301 8.755 27.2301C9.2769 27.2301 9.76868 27.0243 10.14 26.658C10.2755 26.5225 10.5013 26.5225 10.6368 26.658C10.7723 26.7935 10.7723 27.0143 10.6368 27.1548Z" fill="#FB7043"/>
<path d="M29.1139 10.1528L26.1832 7.22212C25.8822 6.92102 25.3904 6.92604 25.0993 7.23717L12.6842 20.4351C12.4032 20.7312 12.4132 21.1979 12.6993 21.4889L14.8421 23.6317C15.1331 23.9228 15.5998 23.9278 15.8959 23.6468L29.0938 11.2317C29.41 10.9507 29.415 10.4589 29.1139 10.1528ZM15.3991 21.8904L14.4506 20.9419L18.2795 16.8722L19.4689 18.0615L15.3991 21.8904ZM22.6655 15.4821C22.5952 15.5524 22.5049 15.5875 22.4146 15.5875C22.3242 15.5875 22.2339 15.5524 22.1636 15.4821L20.8539 14.1724C20.7184 14.0369 20.7184 13.811 20.8539 13.6756C20.9894 13.5401 21.2152 13.5401 21.3507 13.6756L22.6605 14.9853C22.801 15.1208 22.801 15.3466 22.6655 15.4821ZM24.2412 14.087C24.1709 14.1573 24.0806 14.1924 23.9903 14.1924C23.9 14.1924 23.8096 14.1573 23.7394 14.087L22.249 12.5966C22.1135 12.4611 22.1135 12.2353 22.249 12.0998C22.3844 11.9643 22.6103 11.9643 22.7458 12.0998L24.2362 13.5902C24.3767 13.7257 24.3767 13.9516 24.2412 14.087ZM25.8119 12.692C25.7416 12.7622 25.6513 12.7974 25.561 12.7974C25.4707 12.7974 25.3803 12.7622 25.3101 12.692L23.649 11.0259C23.5135 10.8904 23.5135 10.6646 23.649 10.5291C23.7845 10.3936 24.0104 10.3936 24.1458 10.5291L25.8119 12.1952C25.9524 12.3307 25.9524 12.5515 25.8119 12.692ZM27.3876 11.2919C27.3174 11.3622 27.227 11.3973 27.1367 11.3973C27.0464 11.3973 26.9561 11.3622 26.8858 11.2919L25.0441 9.45021C24.9086 9.31472 24.9086 9.0889 25.0441 8.9534C25.1796 8.81791 25.4054 8.81791 25.5409 8.9534L27.3826 10.7951C27.5231 10.9356 27.5231 11.1564 27.3876 11.2919Z" fill="#FB7043"/>
<path d="M16.9596 28.2686H11.8209L11.5449 28.5446C11.3843 28.7051 11.2187 28.8457 11.0381 28.9711H16.9546C17.1503 28.9711 17.3058 28.8155 17.3058 28.6198C17.3109 28.4291 17.1553 28.2686 16.9596 28.2686Z" fill="#FB7043"/>
<path d="M18.4956 28.3287C18.4755 28.3137 18.4554 28.3036 18.4354 28.2986C18.4153 28.2886 18.3902 28.2835 18.3701 28.2785C18.325 28.2685 18.2798 28.2685 18.2346 28.2785C18.2095 28.2835 18.1895 28.2886 18.1694 28.2986C18.1493 28.3086 18.1292 28.3187 18.1092 28.3287C18.0891 28.3438 18.0741 28.3538 18.054 28.3739C17.9887 28.4391 17.9536 28.5294 17.9536 28.6198C17.9536 28.7101 17.9887 28.8004 18.054 28.8707C18.069 28.8857 18.0891 28.9008 18.1092 28.9158C18.1292 28.9309 18.1493 28.9409 18.1694 28.9459C18.1895 28.956 18.2146 28.961 18.2346 28.966C18.2597 28.971 18.2798 28.971 18.3049 28.971C18.33 28.971 18.3501 28.971 18.3751 28.966C18.3952 28.961 18.4203 28.956 18.4404 28.9459C18.4605 28.9359 18.4805 28.9259 18.5006 28.9158C18.5207 28.9008 18.5357 28.8857 18.5558 28.8707C18.621 28.8054 18.6562 28.7151 18.6562 28.6198C18.6562 28.5294 18.616 28.4391 18.5558 28.3739C18.5307 28.3588 18.5157 28.3438 18.4956 28.3287Z" fill="#FB7043"/>
</svg>
