<svg width="35" height="35" viewBox="0 0 35 35" fill="none" xmlns="http://www.w3.org/2000/svg">
<circle cx="17.5" cy="17.5" r="17.5" fill="#F7DDBC"/>
<path d="M17.1093 26.0839C16.2179 25.0373 14.73 23.9179 13.289 23.2097C11.8339 22.4945 10.4519 22.0973 8.88272 21.9437C8.57334 21.9137 8.31684 21.8857 8.31274 21.8817C8.30874 21.8817 8.31674 18.6515 8.33274 14.7125L8.35914 7.55095L8.64482 7.57895C10.399 7.75295 12.3568 8.41575 13.8382 9.33955C15.1149 10.1355 16.4332 11.3647 17.2737 12.5425L17.4852 12.8389V19.6417C17.4852 23.3831 17.4692 26.4437 17.45 26.4431C17.43 26.4425 17.2769 26.2807 17.1093 26.0839ZM18.5624 19.6245V12.7933L18.9709 12.2475C19.4924 11.5507 20.5415 10.5009 21.2351 9.98195C23.0894 8.59415 25.1008 7.80995 27.4101 7.57395L27.703 7.54395V14.7155V21.8873L27.3632 21.9193C24.1478 22.2185 21.3602 23.5451 19.1798 25.8135L18.5624 26.4559V19.6245ZM20.5546 25.9915C21.8166 24.8075 23.4873 23.8667 25.1655 23.3945C26.0437 23.1475 27.1858 22.9751 27.9439 22.9751C28.3414 22.9751 28.5618 22.8891 28.6862 22.6849C28.7798 22.5309 28.7808 22.4647 28.781 16.6535L28.7812 10.7771L28.957 10.8091C29.0536 10.8291 29.3278 10.9051 29.5663 10.9811L29.9999 11.1191V18.4529C29.9999 22.4865 29.9839 25.7867 29.9641 25.7867C29.9441 25.7867 29.6543 25.7247 29.3196 25.6487C27.9967 25.3507 26.9073 25.2483 25.4765 25.2869C23.7411 25.3349 22.3924 25.5769 20.789 26.1309L20.1797 26.3415L20.5546 25.9915ZM15.2108 26.1055C14.545 25.8671 13.4454 25.5861 12.703 25.4649C11.6937 25.3009 10.9973 25.2573 9.76022 25.2849C8.53106 25.3109 7.78758 25.3969 6.77334 25.6271C6.48974 25.6911 6.1997 25.7571 6.1288 25.7711L6 25.7991L6.00022 18.4457L6.00046 11.0921L6.55104 10.9321C6.85384 10.8441 7.12798 10.7621 7.1602 10.7521C7.2068 10.7321 7.2188 11.9301 7.2188 16.6219C7.2188 23.0333 7.2048 22.6759 7.47836 22.8557C7.57356 22.9177 7.77136 22.9457 8.33622 22.9797C10.5811 23.1077 12.7113 23.8615 14.4503 25.1441C14.8253 25.4207 15.7252 26.1803 15.7768 26.2637C15.8128 26.3217 15.7888 26.3157 15.211 26.1077L15.2108 26.1055Z" fill="#FB7043"/>
</svg>
