<svg width="36" height="36" viewBox="0 0 36 36" fill="none" xmlns="http://www.w3.org/2000/svg">
<path d="M35.5461 17.5967C35.5461 21.0578 34.5198 24.4413 32.5968 27.3192C30.6739 30.197 27.9408 32.44 24.7431 33.7646C21.5454 35.0891 18.0267 35.4357 14.6321 34.7604C11.2374 34.0852 8.1192 32.4185 5.67178 29.971C3.22436 27.5236 1.55765 24.4054 0.882408 21.0108C0.207167 17.6161 0.553725 14.0974 1.87826 10.8997C3.20279 7.70201 5.44581 4.96888 8.32367 3.04596C11.2015 1.12304 14.585 0.0966797 18.0461 0.0966797C20.3443 0.0966797 22.6199 0.549331 24.7431 1.42879C26.8663 2.30824 28.7955 3.59728 30.4205 5.22231C32.0455 6.84733 33.3346 8.77652 34.214 10.8997C35.0935 13.0229 35.5461 15.2985 35.5461 17.5967ZM10.5837 18.1537C11.2316 17.7871 11.7134 17.185 11.9291 16.4725C12.1448 15.76 12.0778 14.9918 11.742 14.3274C11.1518 12.6475 9.67744 11.6307 8.44844 12.064C7.80113 12.4306 7.31973 13.0322 7.10408 13.7442C6.88843 14.4562 6.95507 15.2238 7.29018 15.888C7.88036 17.5701 9.35472 18.5847 10.5837 18.1537ZM25.314 19.8049C24.3685 18.8581 23.2455 18.107 22.0094 17.5945C20.7733 17.0821 19.4483 16.8183 18.1102 16.8183C16.7721 16.8183 15.4471 17.0821 14.2111 17.5945C12.975 18.107 11.852 18.8581 10.9064 19.8049C10.129 20.6168 9.70043 21.7009 9.7126 22.825C9.72478 23.949 10.1767 25.0236 10.9716 25.8184C11.7664 26.6133 12.841 27.0653 13.9651 27.0774C15.0891 27.0896 16.1732 26.6611 16.9851 25.8836C17.2835 25.586 17.6877 25.4188 18.1091 25.4188C18.5306 25.4188 18.9348 25.586 19.2331 25.8836C20.045 26.6611 21.1291 27.0896 22.2532 27.0774C23.3772 27.0653 24.4518 26.6133 25.2467 25.8184C26.0416 25.0236 26.4935 23.949 26.5057 22.825C26.5178 21.7009 26.0893 20.6168 25.3118 19.8049H25.314ZM12.1664 11.865C12.3587 13.8942 13.7137 15.4238 15.1991 15.2846C16.6801 15.1431 17.7256 13.3836 17.5355 11.3566C17.3432 9.32966 15.986 7.79783 14.5028 7.93929C13.0218 8.07855 11.9741 9.83806 12.1664 11.865ZM21.0147 15.2846C22.4979 15.4238 23.8552 13.892 24.0475 11.865C24.2398 9.83806 23.1942 8.07855 21.711 7.93929C20.23 7.79783 18.8706 9.32966 18.6783 11.3566C18.4882 13.3858 19.5338 15.1431 21.0147 15.2846ZM27.772 12.064C26.543 11.6329 25.0687 12.6453 24.4785 14.3274C24.1434 14.9916 24.0767 15.7593 24.2924 16.4712C24.508 17.1832 24.9894 17.7849 25.6368 18.1515C26.8658 18.5847 28.3401 17.5701 28.9303 15.888C29.2654 15.2238 29.332 14.4562 29.1164 13.7442C28.9007 13.0322 28.4194 12.4306 27.772 12.064Z" fill="white"/>
</svg>
