<svg width="35" height="35" viewBox="0 0 35 35" fill="none" xmlns="http://www.w3.org/2000/svg">
<circle cx="17.5" cy="17.5" r="17.5" fill="#F7DDBC"/>
<path d="M10.6368 16.5192C8.49582 16.5192 6.75408 14.7781 6.75408 12.6365C6.75408 10.4956 8.49582 8.75384 10.6368 8.75384C12.7771 8.75384 14.5188 10.4956 14.5188 12.6365C14.5188 14.7781 12.7771 16.5192 10.6368 16.5192ZM10.6368 6.99976C7.52839 6.99976 5 9.52877 5 12.6365C5 15.4456 7.06813 17.7747 9.76002 18.1992V22.6958H6.89475V24.4505H9.76002V27.876H11.5141V24.4505H14.3794V22.6958H11.5141V18.1992C14.206 17.7747 16.2735 15.4456 16.2735 12.6365C16.2735 9.52877 13.7451 6.99976 10.6368 6.99976Z" fill="#FB7043"/>
<path d="M20.1219 12.6373C20.1219 10.4964 21.863 8.75468 24.0039 8.75468C26.1449 8.75468 27.8866 10.4964 27.8866 12.6373C27.8866 14.7789 26.1449 16.52 24.0039 16.52C21.863 16.52 20.1219 14.7789 20.1219 12.6373ZM24.8813 25.9019V18.2001C27.5726 17.7756 29.6407 15.4465 29.6407 12.6373C29.6407 9.52961 27.1123 7.0006 24.0039 7.0006C20.8962 7.0006 18.3672 9.52961 18.3672 12.6373C18.3672 15.4465 20.4347 17.7756 23.1272 18.2001V25.9019L19.8325 22.9237L18.6559 24.2249L24.0039 29.0596L29.3519 24.2249L28.1754 22.9237L24.8813 25.9019Z" fill="#FB7043"/>
</svg>
