<svg width="35" height="35" viewBox="0 0 35 35" fill="none" xmlns="http://www.w3.org/2000/svg">
<circle cx="17.5" cy="17.5" r="17.5" fill="#F7DDBC"/>
<path d="M23.6992 11.1496V9.62176H24.8114V6H9V9.62163H10.1123V11.1494C10.1123 13.641 11.4647 15.8177 13.47 17C11.4645 18.1823 10.1123 20.359 10.1123 22.8506V24.3784H9V28H24.8114V24.3784H23.6992V22.8506C23.6992 20.359 22.3467 18.1823 20.3414 17C22.3467 15.8178 23.6992 13.641 23.6992 11.1496ZM21.8134 22.8506V24.3784H11.998V22.8506C11.998 20.1447 14.1996 17.9429 16.9056 17.9429C19.6117 17.9429 21.8134 20.1449 21.8134 22.8506ZM16.9058 16.0572C14.1997 16.0572 11.9981 13.8553 11.9981 11.1496V9.62176H21.8135V11.1496C21.8134 13.8554 19.6119 16.0572 16.9058 16.0572Z" fill="#FB7043"/>
</svg>
