<svg width="35" height="35" viewBox="0 0 35 35" fill="none" xmlns="http://www.w3.org/2000/svg">
<circle cx="17.5" cy="17.5" r="17.5" fill="#F7DDBC"/>
<path d="M18.3652 7.6063L17.6614 7L16.9577 7.6063C16.5787 7.8878 9 14.4921 9 20.3386C9 22.6357 9.91254 24.8388 11.5369 26.4631C13.1612 28.0875 15.3643 29 17.6614 29C19.9586 29 22.1616 28.0875 23.786 26.4631C25.4103 24.8388 26.3228 22.6357 26.3228 20.3386C26.3228 14.4921 18.7441 7.8878 18.3652 7.6063ZM20.0758 25.1781L19.1122 23.2402C19.6515 22.9709 20.1053 22.5569 20.4227 22.0445C20.7401 21.532 20.9086 20.9414 20.9094 20.3386H23.0748C23.0738 21.3442 22.7926 22.3297 22.2629 23.1845C21.7332 24.0393 20.9759 24.7296 20.0758 25.1781Z" fill="#FB7043"/>
</svg>
