<svg width="24" height="24" viewBox="0 0 24 24" fill="none" xmlns="http://www.w3.org/2000/svg">
<path d="M7.80049 2H16.2005C19.4005 2 22.0005 4.6 22.0005 7.8V16.2C22.0005 17.7383 21.3894 19.2135 20.3017 20.3012C19.214 21.3889 17.7387 22 16.2005 22H7.80049C4.60049 22 2.00049 19.4 2.00049 16.2V7.8C2.00049 6.26174 2.61156 4.78649 3.69927 3.69878C4.78698 2.61107 6.26223 2 7.80049 2ZM7.60049 4C6.64571 4 5.73003 4.37928 5.0549 5.05442C4.37977 5.72955 4.00049 6.64522 4.00049 7.6V16.4C4.00049 18.39 5.61049 20 7.60049 20H16.4005C17.3553 20 18.2709 19.6207 18.9461 18.9456C19.6212 18.2705 20.0005 17.3548 20.0005 16.4V7.6C20.0005 5.61 18.3905 4 16.4005 4H7.60049ZM17.2505 5.5C17.582 5.5 17.9 5.6317 18.1344 5.86612C18.3688 6.10054 18.5005 6.41848 18.5005 6.75C18.5005 7.08152 18.3688 7.39946 18.1344 7.63388C17.9 7.8683 17.582 8 17.2505 8C16.919 8 16.601 7.8683 16.3666 7.63388C16.1322 7.39946 16.0005 7.08152 16.0005 6.75C16.0005 6.41848 16.1322 6.10054 16.3666 5.86612C16.601 5.6317 16.919 5.5 17.2505 5.5ZM12.0005 7C13.3266 7 14.5983 7.52678 15.536 8.46447C16.4737 9.40215 17.0005 10.6739 17.0005 12C17.0005 13.3261 16.4737 14.5978 15.536 15.5355C14.5983 16.4732 13.3266 17 12.0005 17C10.6744 17 9.40264 16.4732 8.46495 15.5355C7.52727 14.5978 7.00049 13.3261 7.00049 12C7.00049 10.6739 7.52727 9.40215 8.46495 8.46447C9.40264 7.52678 10.6744 7 12.0005 7ZM12.0005 9C11.2048 9 10.4418 9.31607 9.87917 9.87868C9.31656 10.4413 9.00049 11.2043 9.00049 12C9.00049 12.7956 9.31656 13.5587 9.87917 14.1213C10.4418 14.6839 11.2048 15 12.0005 15C12.7961 15 13.5592 14.6839 14.1218 14.1213C14.6844 13.5587 15.0005 12.7956 15.0005 12C15.0005 11.2043 14.6844 10.4413 14.1218 9.87868C13.5592 9.31607 12.7961 9 12.0005 9Z" fill="#2EC5B6"/>
</svg>
