<svg width="284" height="151" viewBox="0 0 284 151" fill="none" xmlns="http://www.w3.org/2000/svg">
<path d="M106.092 144.352C105.695 144.352 105.363 144.262 105.094 144.083C104.825 143.891 104.659 143.635 104.595 143.315C104.531 142.982 104.588 142.611 104.767 142.202L109.548 131.91C109.779 131.411 110.06 131.046 110.393 130.816C110.739 130.586 111.129 130.47 111.564 130.47C111.999 130.47 112.377 130.586 112.697 130.816C113.03 131.046 113.318 131.411 113.561 131.91L118.342 142.202C118.547 142.611 118.617 142.982 118.553 143.315C118.502 143.648 118.342 143.904 118.073 144.083C117.817 144.262 117.497 144.352 117.113 144.352C116.601 144.352 116.204 144.237 115.923 144.006C115.654 143.776 115.411 143.405 115.193 142.893L114.156 140.454L115.5 141.434H107.59L108.953 140.454L107.916 142.893C107.686 143.405 107.449 143.776 107.206 144.006C106.963 144.237 106.591 144.352 106.092 144.352ZM111.526 134.33L109.299 139.648L108.761 138.726H114.348L113.811 139.648L111.564 134.33H111.526ZM123.465 144.39C122.658 144.39 121.941 144.192 121.314 143.795C120.7 143.398 120.213 142.829 119.855 142.086C119.509 141.344 119.337 140.467 119.337 139.456C119.337 138.419 119.509 137.536 119.855 136.806C120.213 136.077 120.7 135.514 121.314 135.117C121.941 134.72 122.658 134.522 123.465 134.522C124.169 134.522 124.802 134.688 125.365 135.021C125.929 135.354 126.306 135.782 126.498 136.307H126.287V132.198C126.287 131.635 126.434 131.206 126.729 130.912C127.023 130.618 127.445 130.47 127.996 130.47C128.533 130.47 128.949 130.618 129.244 130.912C129.551 131.206 129.705 131.635 129.705 132.198V142.624C129.705 143.187 129.557 143.616 129.263 143.91C128.981 144.205 128.565 144.352 128.015 144.352C127.477 144.352 127.061 144.205 126.767 143.91C126.473 143.616 126.325 143.187 126.325 142.624V141.53L126.537 142.47C126.357 143.046 125.98 143.514 125.404 143.872C124.841 144.218 124.194 144.39 123.465 144.39ZM124.559 141.875C124.905 141.875 125.212 141.792 125.481 141.626C125.749 141.446 125.954 141.184 126.095 140.838C126.249 140.48 126.325 140.019 126.325 139.456C126.325 138.598 126.159 137.984 125.826 137.613C125.493 137.229 125.071 137.037 124.559 137.037C124.213 137.037 123.906 137.12 123.637 137.286C123.369 137.453 123.157 137.715 123.004 138.074C122.85 138.419 122.773 138.88 122.773 139.456C122.773 140.301 122.94 140.915 123.273 141.299C123.605 141.683 124.034 141.875 124.559 141.875ZM136.465 144.39C135.416 144.39 134.5 144.192 133.72 143.795C132.939 143.398 132.331 142.829 131.896 142.086C131.46 141.344 131.243 140.467 131.243 139.456C131.243 138.688 131.364 138.003 131.608 137.402C131.851 136.787 132.203 136.269 132.664 135.846C133.124 135.411 133.675 135.085 134.315 134.867C134.955 134.637 135.672 134.522 136.465 134.522C137.515 134.522 138.43 134.72 139.211 135.117C139.992 135.514 140.593 136.083 141.016 136.826C141.451 137.555 141.668 138.432 141.668 139.456C141.668 140.211 141.547 140.896 141.304 141.51C141.06 142.125 140.708 142.65 140.248 143.085C139.8 143.507 139.249 143.834 138.596 144.064C137.956 144.282 137.246 144.39 136.465 144.39ZM136.465 141.875C136.811 141.875 137.118 141.792 137.387 141.626C137.656 141.446 137.86 141.184 138.001 140.838C138.155 140.48 138.232 140.019 138.232 139.456C138.232 138.598 138.065 137.984 137.732 137.613C137.4 137.229 136.977 137.037 136.465 137.037C136.12 137.037 135.812 137.12 135.544 137.286C135.275 137.453 135.064 137.715 134.91 138.074C134.756 138.419 134.68 138.88 134.68 139.456C134.68 140.301 134.846 140.915 135.179 141.299C135.512 141.683 135.94 141.875 136.465 141.875ZM144.924 147.808C144.386 147.808 143.97 147.661 143.676 147.366C143.382 147.072 143.234 146.643 143.234 146.08V136.269C143.234 135.718 143.375 135.296 143.657 135.002C143.951 134.707 144.367 134.56 144.905 134.56C145.455 134.56 145.871 134.707 146.153 135.002C146.447 135.296 146.594 135.718 146.594 136.269V137.382L146.383 136.442C146.562 135.866 146.934 135.405 147.497 135.059C148.073 134.701 148.726 134.522 149.455 134.522C150.274 134.522 150.991 134.72 151.606 135.117C152.233 135.514 152.719 136.077 153.065 136.806C153.41 137.536 153.583 138.419 153.583 139.456C153.583 140.467 153.41 141.344 153.065 142.086C152.719 142.829 152.233 143.398 151.606 143.795C150.991 144.192 150.274 144.39 149.455 144.39C148.751 144.39 148.118 144.224 147.554 143.891C146.991 143.558 146.614 143.123 146.422 142.586H146.652V146.08C146.652 146.643 146.498 147.072 146.191 147.366C145.897 147.661 145.474 147.808 144.924 147.808ZM148.38 141.875C148.726 141.875 149.026 141.792 149.282 141.626C149.551 141.446 149.762 141.184 149.916 140.838C150.07 140.48 150.146 140.019 150.146 139.456C150.146 138.598 149.98 137.984 149.647 137.613C149.314 137.229 148.892 137.037 148.38 137.037C148.034 137.037 147.727 137.12 147.458 137.286C147.19 137.453 146.978 137.715 146.825 138.074C146.671 138.419 146.594 138.88 146.594 139.456C146.594 140.301 146.761 140.915 147.094 141.299C147.426 141.683 147.855 141.875 148.38 141.875ZM159.96 144.39C158.898 144.39 157.97 144.192 157.176 143.795C156.395 143.398 155.787 142.829 155.352 142.086C154.917 141.331 154.699 140.448 154.699 139.437C154.699 138.669 154.821 137.984 155.064 137.382C155.307 136.768 155.659 136.25 156.12 135.827C156.594 135.405 157.15 135.085 157.79 134.867C158.443 134.637 159.166 134.522 159.96 134.522C160.331 134.522 160.722 134.56 161.131 134.637C161.541 134.701 161.963 134.829 162.398 135.021C162.706 135.136 162.917 135.315 163.032 135.558C163.16 135.789 163.211 136.038 163.186 136.307C163.173 136.576 163.096 136.819 162.955 137.037C162.827 137.254 162.642 137.402 162.398 137.478C162.168 137.555 161.906 137.523 161.611 137.382C161.406 137.28 161.189 137.21 160.958 137.171C160.741 137.12 160.53 137.094 160.325 137.094C159.979 137.094 159.672 137.146 159.403 137.248C159.147 137.35 158.93 137.504 158.75 137.709C158.571 137.901 158.43 138.144 158.328 138.438C158.238 138.733 158.194 139.066 158.194 139.437C158.194 140.179 158.379 140.762 158.75 141.184C159.122 141.606 159.646 141.818 160.325 141.818C160.53 141.818 160.741 141.798 160.958 141.76C161.176 141.709 161.394 141.632 161.611 141.53C161.906 141.389 162.168 141.363 162.398 141.453C162.629 141.53 162.814 141.677 162.955 141.894C163.096 142.112 163.173 142.355 163.186 142.624C163.198 142.88 163.141 143.13 163.013 143.373C162.885 143.603 162.667 143.776 162.36 143.891C161.938 144.083 161.522 144.211 161.112 144.275C160.715 144.352 160.331 144.39 159.96 144.39ZM166.13 144.352C165.593 144.352 165.177 144.192 164.882 143.872C164.588 143.552 164.441 143.091 164.441 142.49V136.422C164.441 135.821 164.588 135.36 164.882 135.04C165.177 134.72 165.593 134.56 166.13 134.56C166.681 134.56 167.103 134.72 167.398 135.04C167.705 135.36 167.858 135.821 167.858 136.422V142.49C167.858 143.091 167.711 143.552 167.417 143.872C167.122 144.192 166.694 144.352 166.13 144.352ZM166.13 133.197C165.529 133.197 165.062 133.056 164.729 132.774C164.409 132.493 164.249 132.083 164.249 131.546C164.249 131.021 164.409 130.618 164.729 130.336C165.062 130.054 165.529 129.914 166.13 129.914C166.758 129.914 167.231 130.054 167.551 130.336C167.871 130.618 168.031 131.021 168.031 131.546C168.031 132.083 167.871 132.493 167.551 132.774C167.231 133.056 166.758 133.197 166.13 133.197ZM174.622 144.39C173.572 144.39 172.657 144.192 171.876 143.795C171.095 143.398 170.487 142.829 170.052 142.086C169.617 141.344 169.399 140.467 169.399 139.456C169.399 138.688 169.521 138.003 169.764 137.402C170.007 136.787 170.359 136.269 170.82 135.846C171.281 135.411 171.831 135.085 172.471 134.867C173.111 134.637 173.828 134.522 174.622 134.522C175.671 134.522 176.586 134.72 177.367 135.117C178.148 135.514 178.75 136.083 179.172 136.826C179.607 137.555 179.825 138.432 179.825 139.456C179.825 140.211 179.703 140.896 179.46 141.51C179.217 142.125 178.865 142.65 178.404 143.085C177.956 143.507 177.406 143.834 176.753 144.064C176.113 144.282 175.402 144.39 174.622 144.39ZM174.622 141.875C174.967 141.875 175.274 141.792 175.543 141.626C175.812 141.446 176.017 141.184 176.158 140.838C176.311 140.48 176.388 140.019 176.388 139.456C176.388 138.598 176.222 137.984 175.889 137.613C175.556 137.229 175.134 137.037 174.622 137.037C174.276 137.037 173.969 137.12 173.7 137.286C173.431 137.453 173.22 137.715 173.066 138.074C172.913 138.419 172.836 138.88 172.836 139.456C172.836 140.301 173.002 140.915 173.335 141.299C173.668 141.683 174.097 141.875 174.622 141.875ZM175.85 133.35C175.671 133.581 175.454 133.715 175.198 133.754C174.954 133.779 174.724 133.734 174.506 133.619C174.289 133.491 174.129 133.318 174.026 133.101C173.937 132.87 173.956 132.614 174.084 132.333L175.351 129.779C175.505 129.472 175.71 129.274 175.966 129.184C176.222 129.094 176.478 129.088 176.734 129.165C177.002 129.242 177.233 129.376 177.425 129.568C177.63 129.76 177.751 129.984 177.79 130.24C177.841 130.496 177.764 130.758 177.559 131.027L175.85 133.35ZM183.08 144.352C182.543 144.352 182.127 144.205 181.832 143.91C181.538 143.616 181.391 143.187 181.391 142.624V136.269C181.391 135.718 181.532 135.296 181.813 135.002C182.108 134.707 182.524 134.56 183.061 134.56C183.599 134.56 184.008 134.707 184.29 135.002C184.572 135.296 184.712 135.718 184.712 136.269V137.171L184.501 136.384C184.808 135.782 185.244 135.322 185.807 135.002C186.383 134.682 187.036 134.522 187.765 134.522C188.52 134.522 189.141 134.669 189.628 134.963C190.114 135.245 190.479 135.693 190.722 136.307C190.965 136.909 191.087 137.67 191.087 138.592V142.624C191.087 143.187 190.94 143.616 190.645 143.91C190.351 144.205 189.928 144.352 189.378 144.352C188.828 144.352 188.405 144.205 188.111 143.91C187.816 143.616 187.669 143.187 187.669 142.624V138.726C187.669 138.15 187.567 137.741 187.362 137.498C187.17 137.254 186.882 137.133 186.498 137.133C185.986 137.133 185.576 137.299 185.269 137.632C184.962 137.952 184.808 138.387 184.808 138.938V142.624C184.808 143.776 184.232 144.352 183.08 144.352ZM202.291 144.39C201.728 144.39 201.152 144.346 200.563 144.256C199.987 144.179 199.463 144.032 198.989 143.814C198.669 143.686 198.439 143.514 198.298 143.296C198.17 143.078 198.106 142.848 198.106 142.605C198.119 142.362 198.189 142.144 198.317 141.952C198.458 141.747 198.637 141.606 198.855 141.53C199.085 141.44 199.341 141.446 199.623 141.549C200.16 141.741 200.64 141.882 201.063 141.971C201.498 142.048 201.914 142.086 202.311 142.086C202.784 142.086 203.123 142.022 203.328 141.894C203.533 141.754 203.635 141.574 203.635 141.357C203.635 141.165 203.565 141.018 203.424 140.915C203.296 140.813 203.111 140.742 202.867 140.704L200.736 140.358C199.943 140.218 199.328 139.93 198.893 139.494C198.458 139.046 198.24 138.464 198.24 137.747C198.24 137.082 198.426 136.512 198.797 136.038C199.181 135.552 199.699 135.181 200.352 134.925C201.018 134.656 201.779 134.522 202.637 134.522C203.213 134.522 203.738 134.566 204.211 134.656C204.685 134.733 205.146 134.88 205.594 135.098C205.875 135.213 206.074 135.379 206.189 135.597C206.304 135.814 206.349 136.045 206.323 136.288C206.298 136.518 206.215 136.736 206.074 136.941C205.946 137.133 205.767 137.267 205.536 137.344C205.306 137.408 205.037 137.389 204.73 137.286C204.307 137.12 203.93 136.998 203.597 136.922C203.277 136.845 202.976 136.806 202.695 136.806C202.17 136.806 201.799 136.877 201.581 137.018C201.363 137.158 201.255 137.338 201.255 137.555C201.255 137.722 201.312 137.862 201.427 137.978C201.543 138.08 201.722 138.15 201.965 138.189L204.096 138.554C204.915 138.682 205.543 138.963 205.978 139.398C206.426 139.821 206.65 140.397 206.65 141.126C206.65 142.163 206.253 142.97 205.459 143.546C204.666 144.109 203.61 144.39 202.291 144.39ZM213.199 144.39C212.047 144.39 211.048 144.192 210.204 143.795C209.372 143.386 208.732 142.81 208.284 142.067C207.836 141.325 207.612 140.448 207.612 139.437C207.612 138.464 207.823 137.613 208.245 136.883C208.68 136.141 209.269 135.565 210.012 135.155C210.767 134.733 211.624 134.522 212.584 134.522C213.288 134.522 213.928 134.637 214.504 134.867C215.08 135.085 215.573 135.411 215.983 135.846C216.392 136.269 216.7 136.781 216.904 137.382C217.122 137.984 217.231 138.656 217.231 139.398C217.231 139.654 217.16 139.846 217.02 139.974C216.879 140.09 216.655 140.147 216.348 140.147H210.472V138.534H214.735L214.428 138.784C214.428 138.31 214.364 137.926 214.236 137.632C214.108 137.338 213.916 137.114 213.66 136.96C213.416 136.806 213.109 136.73 212.738 136.73C212.341 136.73 211.996 136.826 211.701 137.018C211.42 137.197 211.202 137.466 211.048 137.824C210.895 138.182 210.818 138.63 210.818 139.168V139.341C210.818 140.25 211.016 140.902 211.413 141.299C211.823 141.683 212.45 141.875 213.295 141.875C213.576 141.875 213.896 141.843 214.255 141.779C214.626 141.702 214.978 141.6 215.311 141.472C215.644 141.344 215.932 141.325 216.175 141.414C216.418 141.491 216.604 141.632 216.732 141.837C216.872 142.029 216.949 142.253 216.962 142.509C216.975 142.752 216.917 142.995 216.789 143.238C216.661 143.469 216.45 143.648 216.156 143.776C215.708 143.981 215.228 144.134 214.716 144.237C214.216 144.339 213.711 144.39 213.199 144.39ZM223.388 147.846C222.684 147.846 222.025 147.795 221.41 147.693C220.796 147.603 220.265 147.469 219.817 147.29C219.446 147.162 219.183 146.976 219.03 146.733C218.876 146.49 218.806 146.234 218.818 145.965C218.831 145.696 218.902 145.453 219.03 145.235C219.17 145.018 219.356 144.858 219.586 144.755C219.817 144.666 220.073 144.672 220.354 144.774C220.918 145.005 221.43 145.152 221.89 145.216C222.351 145.293 222.742 145.331 223.062 145.331C223.842 145.331 224.425 145.165 224.809 144.832C225.206 144.512 225.404 144.006 225.404 143.315V142.106H225.558C225.366 142.643 224.975 143.085 224.386 143.43C223.798 143.763 223.158 143.93 222.466 143.93C221.622 143.93 220.886 143.738 220.258 143.354C219.631 142.957 219.138 142.406 218.78 141.702C218.434 140.998 218.262 140.173 218.262 139.226C218.262 138.509 218.364 137.862 218.569 137.286C218.774 136.71 219.055 136.218 219.414 135.808C219.785 135.398 220.226 135.085 220.738 134.867C221.263 134.637 221.839 134.522 222.466 134.522C223.183 134.522 223.823 134.688 224.386 135.021C224.962 135.354 225.346 135.789 225.538 136.326L225.346 137.114V136.269C225.346 135.718 225.494 135.296 225.788 135.002C226.095 134.707 226.518 134.56 227.055 134.56C227.593 134.56 228.002 134.707 228.284 135.002C228.578 135.296 228.726 135.718 228.726 136.269V142.912C228.726 144.55 228.265 145.779 227.343 146.598C226.422 147.43 225.103 147.846 223.388 147.846ZM223.522 141.414C223.906 141.414 224.233 141.331 224.502 141.165C224.77 140.986 224.982 140.736 225.135 140.416C225.289 140.083 225.366 139.686 225.366 139.226C225.366 138.534 225.199 137.997 224.866 137.613C224.534 137.229 224.086 137.037 223.522 137.037C223.164 137.037 222.844 137.126 222.562 137.306C222.281 137.472 222.063 137.722 221.91 138.054C221.769 138.374 221.698 138.765 221.698 139.226C221.698 139.917 221.865 140.454 222.198 140.838C222.53 141.222 222.972 141.414 223.522 141.414ZM234.255 144.39C233.436 144.39 232.764 144.243 232.239 143.949C231.714 143.642 231.317 143.187 231.048 142.586C230.792 141.984 230.664 141.222 230.664 140.301V136.269C230.664 135.706 230.812 135.283 231.106 135.002C231.4 134.707 231.823 134.56 232.373 134.56C232.924 134.56 233.346 134.707 233.64 135.002C233.935 135.283 234.082 135.706 234.082 136.269V140.397C234.082 140.858 234.178 141.203 234.37 141.434C234.562 141.664 234.863 141.779 235.272 141.779C235.733 141.779 236.111 141.613 236.405 141.28C236.7 140.947 236.847 140.506 236.847 139.955V136.269C236.847 135.706 236.994 135.283 237.288 135.002C237.583 134.707 238.005 134.56 238.556 134.56C239.106 134.56 239.528 134.707 239.823 135.002C240.117 135.283 240.264 135.706 240.264 136.269V142.624C240.264 143.776 239.714 144.352 238.613 144.352C238.076 144.352 237.66 144.205 237.365 143.91C237.071 143.616 236.924 143.187 236.924 142.624V141.51L237.231 142.451C236.949 143.078 236.552 143.558 236.04 143.891C235.541 144.224 234.946 144.39 234.255 144.39ZM244 144.352C243.437 144.352 243.002 144.205 242.695 143.91C242.4 143.616 242.253 143.187 242.253 142.624V136.269C242.253 135.718 242.394 135.296 242.676 135.002C242.97 134.707 243.386 134.56 243.924 134.56C244.461 134.56 244.871 134.707 245.152 135.002C245.434 135.296 245.575 135.718 245.575 136.269V137.056H245.383C245.511 136.288 245.837 135.68 246.362 135.232C246.9 134.784 247.565 134.547 248.359 134.522C248.73 134.509 249.005 134.605 249.184 134.81C249.376 135.002 249.479 135.366 249.492 135.904C249.492 136.365 249.396 136.73 249.204 136.998C249.012 137.267 248.647 137.427 248.109 137.478L247.668 137.517C246.989 137.581 246.496 137.773 246.189 138.093C245.882 138.4 245.728 138.861 245.728 139.475V142.624C245.728 143.187 245.581 143.616 245.287 143.91C244.992 144.205 244.564 144.352 244 144.352ZM253.768 144.39C253.038 144.39 252.392 144.256 251.828 143.987C251.278 143.718 250.843 143.354 250.523 142.893C250.216 142.419 250.062 141.882 250.062 141.28C250.062 140.589 250.241 140.045 250.6 139.648C250.958 139.251 251.534 138.97 252.328 138.803C253.121 138.624 254.177 138.534 255.496 138.534H256.552V140.147H255.496C254.996 140.147 254.58 140.186 254.248 140.262C253.928 140.326 253.691 140.435 253.537 140.589C253.384 140.73 253.307 140.915 253.307 141.146C253.307 141.44 253.409 141.683 253.614 141.875C253.832 142.067 254.139 142.163 254.536 142.163C254.856 142.163 255.137 142.093 255.38 141.952C255.636 141.811 255.841 141.619 255.995 141.376C256.148 141.12 256.225 140.826 256.225 140.493V138.266C256.225 137.805 256.104 137.478 255.86 137.286C255.63 137.094 255.227 136.998 254.651 136.998C254.344 136.998 253.998 137.037 253.614 137.114C253.23 137.178 252.801 137.299 252.328 137.478C251.982 137.606 251.688 137.626 251.444 137.536C251.201 137.446 251.009 137.293 250.868 137.075C250.74 136.858 250.676 136.621 250.676 136.365C250.689 136.109 250.772 135.866 250.926 135.635C251.092 135.405 251.342 135.226 251.675 135.098C252.289 134.867 252.852 134.714 253.364 134.637C253.889 134.56 254.369 134.522 254.804 134.522C255.854 134.522 256.718 134.675 257.396 134.982C258.088 135.277 258.6 135.738 258.932 136.365C259.278 136.979 259.451 137.773 259.451 138.746V142.624C259.451 143.187 259.316 143.616 259.048 143.91C258.779 144.205 258.388 144.352 257.876 144.352C257.352 144.352 256.948 144.205 256.667 143.91C256.398 143.616 256.264 143.187 256.264 142.624V142.125L256.379 142.394C256.315 142.803 256.168 143.155 255.937 143.45C255.707 143.744 255.406 143.974 255.035 144.141C254.664 144.307 254.241 144.39 253.768 144.39Z" fill="#2EC5B6"/>
<g clip-path="url(#clip0_591_11270)">
<path d="M89.6942 77.0838C82.1989 66.9641 81.8908 54.391 88.8215 44.3734C92.0044 39.7735 97.0356 36.758 102.323 36.4002C107.406 36.0424 112.232 38.0357 115.979 42.0223C119.06 45.3445 121.575 48.8711 123.937 52.3466C124.707 53.471 125.477 54.5443 126.196 55.5665C126.401 55.2598 126.658 54.9532 126.863 54.6465C126.914 54.5954 126.914 54.5443 126.966 54.4932L130.97 47.6955C131.894 45.3956 132.407 42.9423 132.459 40.4379C132.459 40.2335 132.459 39.9779 132.459 39.7735C132.51 34.2536 131.637 28.7848 129.481 23.5716C125.22 13.2473 117.365 6.34748 106.276 2.82088C98.473 0.316485 90.4129 0.163155 82.5069 2.76977C77.5271 4.40529 73.4201 7.26746 70.4938 11.4585C67.8755 15.1384 67.1055 19.2272 67.1055 23.5716C67.1568 36.2469 67.1055 48.9222 67.1055 61.5975C67.1055 66.0952 67.1055 70.644 67.1055 75.1417C67.1055 84.0348 67.1055 92.9791 67.1055 101.872C67.1055 105.143 69.1077 106.625 72.65 106.319C74.4468 106.165 75.8843 105.45 77.3217 104.581C84.6118 100.237 91.7477 95.5857 98.7297 90.8325C99.6538 90.2191 100.527 89.6058 101.451 88.9414C96.7275 85.2615 92.8772 81.4282 89.6942 77.0838Z" fill="#2EC5B6"/>
<path d="M115.004 106.114C114.953 105.194 114.953 104.274 115.056 103.303C115.415 98.9587 115.826 94.6143 116.236 90.3211C116.39 88.6856 115.928 87.6633 114.44 86.7945C107.714 82.8079 101.605 78.1569 96.9333 71.7681C91.8509 64.8683 91.3888 56.4351 96.2146 49.433C98.9869 45.4464 104.737 43.0954 109.408 48.1041C113.362 52.3463 116.442 57.4573 119.933 62.1083C121.114 63.6416 122.294 65.226 123.68 66.5549C125.683 68.446 127.634 68.2926 129.43 66.0949C132.305 62.5172 134.924 58.735 137.747 55.1062C140.211 51.9374 142.984 49.1263 146.885 47.593C151.3 45.8553 157.666 48.3086 160.233 52.9596C162.235 56.5884 162.441 60.0639 160.593 63.8972C158.128 69.0593 154.843 73.557 150.736 77.4413C147.142 80.8146 143.292 83.9323 139.441 87.05C137.85 88.3789 137.798 89.8611 138.209 91.6499C140.006 98.8565 141.135 106.114 140.776 113.576C140.725 115.109 140.468 116.643 140.057 118.074C138.723 122.725 135.18 124.82 130.714 125.076C127.839 125.229 124.81 124.769 121.986 124.003C117.417 122.776 115.62 119.096 115.312 114.752C115.21 112.35 115.107 108.107 115.004 106.114Z" fill="#FB7043"/>
<path d="M187.75 74.58C188.161 70.7978 190.83 68.9579 195.759 68.9579C198.377 68.9579 200.328 69.1623 201.611 69.5712C202.895 69.9801 203.767 70.6956 204.281 71.6667C204.794 72.6889 205.102 73.5578 205.205 74.3244C205.307 75.0911 205.359 76.2666 205.359 77.7999V113.066C205.359 114.599 205.307 115.775 205.205 116.541C205.102 117.308 204.794 118.228 204.332 119.199C203.408 120.937 201.098 121.806 197.401 121.806C193.705 121.806 191.241 121.346 190.009 120.426C188.777 119.506 188.058 118.177 187.853 116.439C185.337 120.017 181.179 121.755 175.377 121.755C169.525 121.755 164.134 119.097 159.155 113.781C154.175 108.466 151.659 102.333 151.659 95.2795C151.659 88.2775 154.175 82.1442 159.206 76.8288C164.237 71.5645 169.73 68.9067 175.737 68.9067C178.047 68.9067 180.1 69.3156 182 70.1334C183.899 70.9511 185.183 71.7178 185.953 72.3822C186.672 73.2511 187.288 73.9155 187.75 74.58ZM169.371 95.5351C169.371 97.7328 170.244 99.7261 171.989 101.515C173.735 103.304 175.891 104.173 178.355 104.173C180.871 104.173 182.924 103.253 184.567 101.464C186.21 99.675 187.031 97.6306 187.031 95.484C187.031 93.2862 186.261 91.293 184.67 89.4019C183.078 87.5108 180.973 86.5908 178.304 86.5908C175.634 86.5908 173.478 87.5108 171.835 89.4019C170.192 91.293 169.371 93.3374 169.371 95.5351Z" fill="#FB7043"/>
<path d="M255.979 59.1444C255.465 60.1155 254.593 60.831 253.309 61.1888C252.026 61.5976 250.332 61.8021 248.227 61.8021C246.122 61.8021 244.376 61.5976 243.144 61.1888C241.861 60.7799 240.988 60.0643 240.475 59.0933C239.961 58.071 239.653 57.2022 239.551 56.4355C239.448 55.6689 239.397 54.4933 239.397 52.96C239.397 51.4267 239.448 50.2512 239.551 49.4846C239.653 48.7179 239.961 47.849 240.423 46.929C241.347 45.1402 244.017 44.2202 248.329 44.2202C252.591 44.2202 255.157 45.1402 256.03 46.929C256.544 47.9512 256.903 48.8201 257.006 49.5868C257.108 50.3534 257.16 51.529 257.16 53.0623C257.16 54.5956 257.108 55.7711 257.006 56.5377C256.8 57.3044 256.492 58.1733 255.979 59.1444ZM239.345 77.7995C239.345 76.2662 239.397 75.0907 239.499 74.3241C239.602 73.5574 239.91 72.6374 240.372 71.6663C241.296 69.9286 243.966 69.0597 248.278 69.0597C251.512 69.0597 253.823 69.6219 255.157 70.7464C256.287 71.6663 256.903 73.1485 256.954 75.0907C257.006 75.7551 257.057 76.7262 257.057 78.004V113.27C257.057 114.803 257.006 115.979 256.903 116.745C256.8 117.512 256.492 118.432 255.927 119.403C255.055 121.141 252.436 122.01 248.124 122.01C243.863 122.01 241.296 121.09 240.321 119.301C239.859 118.279 239.551 117.41 239.448 116.694C239.345 115.979 239.294 114.803 239.294 113.168V77.7995H239.345Z" fill="#FB7043"/>
<path d="M213.676 48.1558C213.676 46.6225 213.727 45.447 213.83 44.6804C213.933 43.9137 214.241 42.9937 214.703 42.0226C215.627 40.2849 218.296 39.416 222.609 39.416C225.843 39.416 228.153 39.9782 229.488 41.1027C230.617 42.0226 231.233 43.5048 231.285 45.447C231.336 46.1114 231.387 47.0825 231.387 48.3603V113.27C231.387 114.803 231.336 115.979 231.233 116.746C231.131 117.512 230.823 118.432 230.258 119.403C229.385 121.141 226.767 122.01 222.455 122.01C218.194 122.01 215.627 121.09 214.651 119.301C214.189 118.279 213.881 117.41 213.779 116.694C213.676 115.979 213.625 114.803 213.625 113.168V48.1558H213.676Z" fill="#FB7043"/>
<path d="M59.0456 8.69858C57.5054 8.13637 55.6059 7.52305 53.2957 7.01195C47.8539 5.78531 42.4634 4.25201 36.9702 3.38313C30.707 2.36093 24.4951 3.12758 18.5398 5.63198C12.3793 8.23859 7.91287 12.8896 4.62723 18.8695C3.4978 20.9139 2.62505 22.9583 1.95765 25.1049C1.95765 25.1049 0.0581465 29.5515 0.520189 35.9403C0.520189 36.1958 0.520189 36.4003 0.571527 36.6558C0.571527 36.9625 0.622865 37.2691 0.725541 37.5247C1.08491 40.1824 1.85498 43.0446 3.29244 46.0601C3.29244 46.0601 3.29244 46.1112 3.34378 46.1112C4.83259 49.1778 8.83696 49.9444 11.5579 47.8489C15.7163 44.6801 21.0041 42.8912 26.7026 43.249C37.9456 43.9646 46.9811 53.1133 47.5459 64.3064C47.8025 69.0596 46.5191 73.5062 44.1575 77.2372C41.4366 81.5305 41.8473 87.1526 45.441 90.7814C45.4923 90.8325 45.4923 90.8325 45.5437 90.8836L47.7512 93.0814C47.8539 93.2347 48.0079 93.3369 48.1106 93.4902C48.5726 93.9502 48.9833 94.3591 49.394 94.768C54.1171 99.419 57.9161 103.048 59.713 104.632L59.7643 104.683C61.2531 106.012 63.512 104.888 63.512 102.843V15.0873C63.358 12.2252 61.6125 9.61857 59.0456 8.69858Z" fill="#FB7043"/>
</g>
<defs>
<clipPath id="clip0_591_11270">
<rect width="256.639" height="124.351" fill="white" transform="translate(0.417969 0.828125)"/>
</clipPath>
</defs>
</svg>
