<svg width="231" height="113" viewBox="0 0 231 113" fill="none" xmlns="http://www.w3.org/2000/svg">
<g clip-path="url(#clip0_526_2006)">
<path d="M52.7841 7.18895C51.3951 6.70038 49.6588 6.14201 47.5752 5.65344C42.7135 4.5367 37.8518 3.14077 32.9206 2.30322C27.295 1.39587 21.6693 2.09383 16.3214 4.32731C10.7652 6.70038 6.73693 10.9579 3.81991 16.3323C2.77812 18.2167 1.94469 20.1012 1.38907 22.0555C1.38907 22.0555 -0.347254 26.1037 0.0694633 31.8968C0.0694633 32.1062 0.0694633 32.3156 0.0694633 32.525C0.0694633 32.8041 0.138916 33.0833 0.208369 33.2927C0.48618 35.6658 1.18071 38.318 2.50031 41.0401C3.95882 44.0413 7.0842 45.856 10.4179 45.6466C20.6275 44.8789 34.7959 48.3687 36.3238 72.6578C36.5322 76.0778 37.9907 79.3582 40.4215 81.8011L42.3662 83.8251C42.4357 83.9647 42.5746 84.0345 42.7135 84.1741C43.1302 84.5929 43.4775 84.9419 43.8942 85.3607C48.1308 89.5484 51.534 92.8987 53.2009 94.3644C54.5205 95.5509 56.604 94.5738 56.604 92.6893V12.982C56.6735 10.3298 55.0761 8.02651 52.7841 7.18895Z" fill="#2EC5B6"/>
<path d="M80.3569 69.3076C73.62 60.0945 73.3421 48.7178 79.5929 39.5745C82.4405 35.3867 87.0243 32.6646 91.7471 32.3157C96.331 31.9667 100.707 33.7814 104.04 37.4108C106.818 40.412 109.041 43.6226 111.194 46.7635C111.888 47.7406 112.583 48.7177 113.208 49.6949C113.416 49.4157 113.625 49.1365 113.833 48.8573C113.833 48.7875 113.903 48.7875 113.903 48.7178L117.514 42.5757C118.348 40.4818 118.834 38.2483 118.834 36.0148C118.834 35.8055 118.834 35.5961 118.834 35.3867C118.903 30.3614 118.139 25.4058 116.125 20.6597C112.236 11.307 105.221 4.95555 95.2198 1.81472C88.205 -0.418756 80.9125 -0.558348 73.8283 1.74493C69.4528 3.21065 65.7718 5.7931 63.1326 9.63189C60.7712 12.9821 60.0767 16.6813 60.0767 20.6597C60.0767 32.1761 60.0767 43.6924 60.0767 55.2088C60.0767 59.3268 60.0767 63.4447 60.0767 67.5627C60.0767 75.6591 60.0767 83.7554 60.0767 91.8518C60.0767 94.853 61.8824 96.1791 65.0773 95.9C66.6747 95.7604 67.9943 95.1322 69.3139 94.3644C75.9119 90.3861 82.3016 86.1983 88.6218 81.8709C89.4552 81.3126 90.2886 80.7542 91.0526 80.1958C86.6771 76.706 83.2044 73.2162 80.3569 69.3076Z" fill="#FB7043"/>
<path d="M104.249 81.3127C104.387 79.847 103.971 78.8698 102.651 78.1021C96.6087 74.4727 91.0525 70.2151 86.8853 64.4918C82.3014 58.2102 81.8847 50.5326 86.2602 44.1811C88.7605 40.5517 93.9695 38.4578 98.1367 42.9946C101.679 46.8334 104.457 51.5097 107.582 55.6975C108.624 57.0934 109.666 58.5591 110.916 59.7457C112.722 61.4208 114.458 61.351 116.055 59.3269C118.625 56.1163 120.987 52.6265 123.556 49.346C125.779 46.4844 128.279 43.9019 131.752 42.506C135.711 40.9007 141.475 43.1342 143.767 47.3918C145.573 50.6722 145.781 53.813 144.114 57.3028C141.892 61.9791 138.905 66.0971 135.224 69.5869C131.96 72.658 128.488 75.4498 125.084 78.3115C123.626 79.498 123.556 80.8939 123.973 82.4992C125.571 89.0601 126.612 95.6907 126.265 102.461C126.196 103.857 125.987 105.253 125.64 106.579C124.459 110.767 121.264 112.721 117.236 112.93C114.666 113.07 111.888 112.651 109.388 111.953C105.29 110.836 103.693 107.486 103.415 103.508C103.276 100.646 103.832 85.7796 104.249 81.3127Z" fill="#2EC5B6"/>
<path d="M168.631 67.0741C168.978 63.6541 171.409 61.979 175.854 61.979C178.216 61.979 179.952 62.1884 181.133 62.5374C182.313 62.8864 183.077 63.5145 183.564 64.4917C184.05 65.399 184.258 66.2366 184.397 66.9345C184.466 67.6325 184.536 68.6794 184.536 70.0754V102.112C184.536 103.508 184.466 104.555 184.397 105.253C184.328 105.951 184.05 106.788 183.633 107.695C182.8 109.301 180.716 110.069 177.382 110.069C174.049 110.069 171.826 109.65 170.715 108.812C169.604 107.975 168.909 106.788 168.77 105.183C166.548 108.393 162.797 109.999 157.519 109.999C152.24 109.999 147.379 107.556 142.934 102.74C138.419 97.924 136.197 92.3403 136.197 85.9191C136.197 79.5676 138.489 73.9839 143.003 69.168C147.518 64.3521 152.518 61.979 157.866 61.979C159.95 61.979 161.825 62.328 163.492 63.0957C165.159 63.7937 166.339 64.4917 167.034 65.1198C167.659 65.8178 168.215 66.446 168.631 67.0741ZM152.101 86.0587C152.101 88.0828 152.865 89.8975 154.463 91.5028C156.06 93.1081 157.935 93.9457 160.227 93.9457C162.45 93.9457 164.325 93.1081 165.853 91.5028C167.312 89.8277 168.076 88.013 168.076 86.0587C168.076 84.1044 167.381 82.2199 165.923 80.5448C164.464 78.8697 162.589 77.9623 160.158 77.9623C157.727 77.9623 155.782 78.7999 154.324 80.5448C152.796 82.2199 152.101 84.0346 152.101 86.0587Z" fill="#2EC5B6"/>
<path d="M230.097 52.9755C229.611 53.8829 228.847 54.511 227.666 54.86C226.485 55.209 224.958 55.4184 223.082 55.4184C221.138 55.4184 219.61 55.209 218.498 54.86C217.318 54.511 216.554 53.8829 216.068 52.9057C215.581 51.9984 215.373 51.1608 215.234 50.4629C215.165 49.7649 215.095 48.718 215.095 47.322C215.095 45.9261 215.165 44.8792 215.234 44.1812C215.304 43.4832 215.581 42.7155 215.998 41.8779C216.832 40.2028 219.193 39.4351 223.082 39.4351C226.902 39.4351 229.194 40.2726 230.028 41.8779C230.514 42.7853 230.792 43.6228 230.861 44.3208C230.93 45.0188 231 46.0657 231 47.4616C231 48.8575 230.93 49.9045 230.861 50.6024C230.792 51.3004 230.514 52.138 230.097 52.9755ZM215.095 69.936C215.095 68.5401 215.165 67.4931 215.234 66.7952C215.304 66.0972 215.581 65.2596 215.998 64.3523C216.832 62.747 219.193 61.9792 223.082 61.9792C225.999 61.9792 228.083 62.4678 229.264 63.5147C230.305 64.3523 230.861 65.6784 230.93 67.4233C231 68.0515 231 68.889 231 70.0756V102.112C231 103.508 230.93 104.555 230.861 105.253C230.792 105.951 230.514 106.788 230.028 107.696C229.264 109.301 226.902 110.069 223.013 110.069C219.193 110.069 216.832 109.231 215.998 107.626C215.581 106.719 215.304 105.951 215.234 105.253C215.165 104.555 215.095 103.508 215.095 102.042V69.936Z" fill="#2EC5B6"/>
<path d="M191.967 43.0642C191.967 41.6683 192.037 40.6213 192.106 39.9234C192.176 39.2254 192.453 38.3878 192.87 37.4805C193.704 35.8752 196.065 35.1074 199.954 35.1074C202.871 35.1074 204.955 35.596 206.136 36.6429C207.177 37.4805 207.733 38.8066 207.803 40.5515C207.872 41.1797 207.872 42.0172 207.872 43.2038V102.182C207.872 103.577 207.803 104.624 207.733 105.322C207.664 106.02 207.386 106.858 206.9 107.765C206.136 109.371 203.774 110.138 199.885 110.138C196.065 110.138 193.704 109.301 192.87 107.695C192.453 106.788 192.176 106.02 192.106 105.322C192.037 104.624 191.967 103.577 191.967 102.112V43.0642Z" fill="#2EC5B6"/>
</g>
<defs>
<clipPath id="clip0_526_2006">
<rect width="231" height="113" fill="white"/>
</clipPath>
</defs>
</svg>
