<svg width="66" height="33" viewBox="0 0 66 33" fill="none" xmlns="http://www.w3.org/2000/svg">
<g clip-path="url(#clip0_591_10477)">
<path d="M23.251 20.0291C21.3685 17.4621 21.2911 14.2729 23.0318 11.7318C23.8312 10.565 25.0948 9.80007 26.4229 9.70932C27.6994 9.61856 28.9115 10.1242 29.8527 11.1354C30.6264 11.9781 31.2582 12.8727 31.8513 13.7543C32.0447 14.0395 32.2381 14.3117 32.4186 14.571C32.4702 14.4933 32.5347 14.4155 32.5863 14.3377C32.5992 14.3247 32.5992 14.3117 32.6121 14.2988L33.6178 12.5745C33.8499 11.9911 33.9788 11.3688 33.9917 10.7335C33.9917 10.6817 33.9917 10.6168 33.9917 10.565C34.0046 9.1648 33.7854 7.77759 33.2439 6.4552C32.1737 3.83636 30.2009 2.08614 27.4158 1.19158C25.4559 0.556314 23.4315 0.517421 21.4458 1.17861C20.1951 1.59348 19.1636 2.3195 18.4286 3.3826C17.771 4.31605 17.5776 5.35321 17.5776 6.4552C17.5905 9.67042 17.5776 12.8856 17.5776 16.1009C17.5776 17.2417 17.5776 18.3956 17.5776 19.5365C17.5776 21.7923 17.5776 24.0611 17.5776 26.317C17.5776 27.1467 18.0805 27.5227 18.9702 27.4449C19.4215 27.406 19.7825 27.2245 20.1435 27.0041C21.9745 25.9021 23.7668 24.7223 25.5203 23.5166C25.7524 23.361 25.9716 23.2055 26.2037 23.0369C25.0175 22.1035 24.0504 21.1311 23.251 20.0291Z" fill="#2EC5B6"/>
<path d="M29.6079 27.3934C29.595 27.16 29.595 26.9266 29.6208 26.6803C29.7111 25.5783 29.8142 24.4763 29.9174 23.3873C29.9561 22.9724 29.84 22.7131 29.4661 22.4927C27.777 21.4815 26.2426 20.3017 25.0693 18.6811C23.7927 16.9309 23.6767 14.7918 24.8887 13.0156C25.585 12.0044 27.0291 11.408 28.2025 12.6785C29.1953 13.7546 29.969 15.0511 30.8458 16.2308C31.1423 16.6198 31.4389 17.0217 31.787 17.3588C32.2899 17.8384 32.7799 17.7996 33.2312 17.2421C33.9532 16.3346 34.6108 15.3752 35.32 14.4547C35.9389 13.6509 36.6352 12.9378 37.6151 12.5489C38.724 12.1081 40.3229 12.7304 40.9676 13.9102C41.4704 14.8307 41.522 15.7123 41.0578 16.6846C40.4389 17.994 39.6137 19.1349 38.5822 20.1202C37.6796 20.9759 36.7125 21.7667 35.7455 22.5576C35.3458 22.8946 35.3329 23.2706 35.436 23.7244C35.8873 25.5524 36.171 27.3934 36.0807 29.2862C36.0678 29.6751 36.0034 30.0641 35.9002 30.4271C35.565 31.6068 34.6753 32.1384 33.5535 32.2032C32.8314 32.2421 32.0707 32.1254 31.3615 31.931C30.214 31.6198 29.7627 30.6864 29.6853 29.5844C29.6595 28.975 29.6337 27.899 29.6079 27.3934Z" fill="#FB7043"/>
<path d="M47.8785 19.3941C47.9816 18.4348 48.6521 17.968 49.8899 17.968C50.5475 17.968 51.0375 18.0199 51.3598 18.1236C51.6822 18.2273 51.9014 18.4088 52.0303 18.6552C52.1593 18.9145 52.2366 19.1349 52.2624 19.3293C52.2882 19.5238 52.3011 19.822 52.3011 20.2109V29.1565C52.3011 29.5454 52.2882 29.8436 52.2624 30.0381C52.2366 30.2325 52.1593 30.4659 52.0432 30.7122C51.8111 31.153 51.2309 31.3734 50.3025 31.3734C49.3742 31.3734 48.7552 31.2568 48.4458 31.0234C48.1363 30.79 47.9558 30.4529 47.9042 30.0122C47.2724 30.9197 46.228 31.3605 44.771 31.3605C43.3011 31.3605 41.9472 30.6863 40.6965 29.338C39.4458 27.9897 38.814 26.4339 38.814 24.6448C38.814 22.8687 39.4458 21.3129 40.7094 19.9646C41.973 18.6292 43.3527 17.9551 44.8613 17.9551C45.4415 17.9551 45.9572 18.0588 46.4343 18.2662C46.9114 18.4737 47.2338 18.6681 47.4272 18.8367C47.6077 19.0571 47.7624 19.2256 47.8785 19.3941ZM43.2624 24.7096C43.2624 25.2671 43.4816 25.7727 43.92 26.2265C44.3584 26.6803 44.8999 26.9006 45.5188 26.9006C46.1507 26.9006 46.6664 26.6673 47.079 26.2135C47.4916 25.7598 47.6979 25.2412 47.6979 24.6967C47.6979 24.1392 47.5045 23.6336 47.1048 23.1539C46.7051 22.6742 46.1764 22.4408 45.506 22.4408C44.8355 22.4408 44.2939 22.6742 43.8813 23.1539C43.4687 23.6336 43.2624 24.1522 43.2624 24.7096Z" fill="#FB7043"/>
<path d="M65.0143 15.479C64.8853 15.7253 64.6661 15.9069 64.3438 15.9976C64.0214 16.1013 63.5959 16.1532 63.0673 16.1532C62.5386 16.1532 62.1002 16.1013 61.7908 15.9976C61.4684 15.8939 61.2492 15.7124 61.1203 15.4661C60.9914 15.2068 60.914 14.9864 60.8882 14.7919C60.8624 14.5974 60.8495 14.2992 60.8495 13.9103C60.8495 13.5214 60.8624 13.2232 60.8882 13.0287C60.914 12.8342 60.9914 12.6138 61.1074 12.3805C61.3395 11.9267 62.01 11.6934 63.0931 11.6934C64.1633 11.6934 64.808 11.9267 65.0272 12.3805C65.1561 12.6398 65.2464 12.8602 65.2722 13.0546C65.298 13.2491 65.3108 13.5473 65.3108 13.9362C65.3108 14.3252 65.298 14.6234 65.2722 14.8178C65.2206 15.0123 65.1432 15.2327 65.0143 15.479ZM60.8366 20.2111C60.8366 19.8222 60.8495 19.524 60.8753 19.3295C60.9011 19.135 60.9785 18.9017 61.0945 18.6553C61.3266 18.2146 61.9971 17.9942 63.0802 17.9942C63.8925 17.9942 64.4727 18.1368 64.808 18.422C65.0917 18.6553 65.2464 19.0313 65.2593 19.524C65.2722 19.6925 65.2851 19.9388 65.2851 20.263V29.2085C65.2851 29.5975 65.2722 29.8956 65.2464 30.0901C65.2206 30.2846 65.1432 30.5179 65.0014 30.7643C64.7822 31.2051 64.1246 31.4255 63.0415 31.4255C61.9713 31.4255 61.3266 31.1921 61.0816 30.7383C60.9656 30.4791 60.8882 30.2587 60.8624 30.0772C60.8366 29.8956 60.8237 29.5975 60.8237 29.1826V20.2111H60.8366Z" fill="#FB7043"/>
<path d="M54.3903 12.6911C54.3903 12.3021 54.4032 12.0039 54.429 11.8095C54.4548 11.615 54.5322 11.3816 54.6482 11.1353C54.8803 10.6945 55.5508 10.4741 56.6339 10.4741C57.4462 10.4741 58.0264 10.6167 58.3617 10.902C58.6454 11.1353 58.8001 11.5113 58.813 12.0039C58.8259 12.1725 58.8388 12.4188 58.8388 12.7429V29.208C58.8388 29.5969 58.8259 29.8951 58.8001 30.0896C58.7743 30.284 58.6969 30.5174 58.5551 30.7637C58.3359 31.2045 57.6783 31.4249 56.5952 31.4249C55.525 31.4249 54.8803 31.1915 54.6353 30.7378C54.5193 30.4785 54.4419 30.2581 54.4161 30.0766C54.3903 29.8951 54.3774 29.5969 54.3774 29.182V12.6911H54.3903Z" fill="#FB7043"/>
<path d="M15.5533 2.68289C15.1665 2.54028 14.6894 2.38471 14.1092 2.25506C12.7424 1.94391 11.3885 1.55497 10.0089 1.33457C8.43581 1.07528 6.87563 1.26975 5.37993 1.90502C3.83265 2.56621 2.71087 3.74599 1.88565 5.26285C1.60198 5.78143 1.38278 6.30001 1.21516 6.84453C1.21516 6.84453 0.738084 7.97245 0.85413 9.59302C0.85413 9.65784 0.85413 9.7097 0.867024 9.77452C0.867024 9.85231 0.879918 9.9301 0.905706 9.99492C0.995964 10.6691 1.18937 11.3951 1.55041 12.16C1.55041 12.16 1.55041 12.173 1.5633 12.173C1.93723 12.9508 2.94296 13.1453 3.62634 12.6138C4.67076 11.81 5.99884 11.3562 7.43007 11.447C10.2539 11.6285 12.5232 13.9491 12.665 16.7884C12.7295 17.9941 12.4072 19.122 11.814 20.0684C11.1307 21.1574 11.2338 22.5835 12.1364 23.504C12.1493 23.517 12.1493 23.517 12.1622 23.53L12.7166 24.0874C12.7424 24.1263 12.7811 24.1523 12.8069 24.1912C12.9229 24.3078 13.0261 24.4116 13.1292 24.5153C14.3155 25.695 15.2696 26.6155 15.7209 27.0174L15.7338 27.0304C16.1077 27.3675 16.6751 27.0823 16.6751 26.5637V4.30347C16.6364 3.57745 16.198 2.91625 15.5533 2.68289Z" fill="#FB7043"/>
</g>
<defs>
<clipPath id="clip0_591_10477">
<rect width="64.4571" height="31.5429" fill="white" transform="translate(0.828613 0.686035)"/>
</clipPath>
</defs>
</svg>
