<svg width="45" height="44" viewBox="0 0 45 44" fill="none" xmlns="http://www.w3.org/2000/svg">
<path d="M8.53655 21.6934C7.38275 21.6934 6.40966 21.3075 5.61728 20.5357C4.8249 19.7639 4.42871 18.8191 4.42871 17.7014C4.42871 16.5837 4.82705 15.641 5.62373 14.8734C6.42041 14.1057 7.39564 13.7219 8.54944 13.7219C9.70324 13.7219 10.6763 14.1078 11.4687 14.8796C12.2611 15.6514 12.6573 16.5961 12.6573 17.7139C12.6573 18.8316 12.2589 19.7743 11.4623 20.5419C10.6656 21.3096 9.69035 21.6934 8.53655 21.6934ZM16.9937 14.1648C15.8399 14.1648 14.8668 13.7789 14.0744 13.0071C13.282 12.2353 12.8859 11.2906 12.8859 10.1728C12.8859 9.05509 13.2842 8.11241 14.0809 7.34479C14.8775 6.57717 15.8528 6.19336 17.0066 6.19336C18.1604 6.19336 19.1335 6.57925 19.9259 7.35103C20.7182 8.12281 21.1144 9.06758 21.1144 10.1853C21.1144 11.3031 20.7161 12.2457 19.9194 13.0134C19.1227 13.781 18.1475 14.1648 16.9937 14.1648ZM28.4223 14.1648C27.2685 14.1648 26.2954 13.7789 25.503 13.0071C24.7106 12.2353 24.3144 11.2906 24.3144 10.1728C24.3144 9.05509 24.7128 8.11241 25.5094 7.34479C26.3061 6.57717 27.2814 6.19336 28.4352 6.19336C29.589 6.19336 30.562 6.57925 31.3544 7.35103C32.1468 8.12281 32.543 9.06758 32.543 10.1853C32.543 11.3031 32.1447 12.2457 31.348 13.0134C30.5513 13.781 29.5761 14.1648 28.4223 14.1648ZM36.8794 21.6934C35.7256 21.6934 34.7525 21.3075 33.9601 20.5357C33.1678 19.7639 32.7716 18.8191 32.7716 17.7014C32.7716 16.5837 33.1699 15.641 33.9666 14.8734C34.7633 14.1057 35.7385 13.7219 36.8923 13.7219C38.0461 13.7219 39.0192 14.1078 39.8116 14.8796C40.6039 15.6514 41.0001 16.5961 41.0001 17.7139C41.0001 18.8316 40.6018 19.7743 39.8051 20.5419C39.0084 21.3096 38.0332 21.6934 36.8794 21.6934ZM12.9316 39.8505C11.6516 39.8505 10.6001 39.3851 9.77728 38.4543C8.95442 37.5236 8.543 36.4242 8.543 35.1562C8.543 33.9162 8.93157 32.8165 9.70871 31.8569C10.4859 30.8974 11.3163 29.9748 12.2001 29.0891C12.8706 28.4396 13.4954 27.7531 14.0744 27.0298C14.6535 26.3065 15.202 25.561 15.7201 24.7934C16.6039 23.4943 17.5944 22.2838 18.6916 21.1619C19.7887 20.04 21.1297 19.4791 22.7144 19.4791C24.2992 19.4791 25.6478 20.04 26.7601 21.1619C27.8725 22.2838 28.8706 23.5091 29.7544 24.8376C30.2725 25.6053 30.8135 26.3434 31.3773 27.0519C31.9411 27.7605 32.5582 28.4396 33.2287 29.0891C34.1125 29.9748 34.943 30.8974 35.7201 31.8569C36.4973 32.8165 36.8858 33.9162 36.8858 35.1562C36.8858 36.4242 36.4744 37.5236 35.6516 38.4543C34.8287 39.3851 33.7773 39.8505 32.4973 39.8505C30.8516 39.8505 29.2211 39.7176 27.6059 39.4519C25.9906 39.1862 24.3601 39.0534 22.7144 39.0534C21.0687 39.0534 19.4382 39.1862 17.823 39.4519C16.2078 39.7176 14.5773 39.8505 12.9316 39.8505Z" fill="#455A64"/>
</svg>
