<svg width="50" height="50" viewBox="0 0 50 50" fill="none" xmlns="http://www.w3.org/2000/svg">
<path d="M19.4682 45.7713C17.6167 45.7713 16.0739 45.1541 14.8396 43.9198C13.6053 42.6856 12.9882 41.1427 12.9882 39.2913C12.9882 39.017 13.0139 38.6484 13.0653 38.1856C13.1167 37.7227 13.1082 37.457 13.0396 37.3884C12.971 37.3198 12.7053 37.3113 12.2425 37.3627C11.7796 37.4141 11.411 37.4398 11.1367 37.4398C9.28531 37.4398 7.74245 36.8227 6.50817 35.5884C5.27388 34.3541 4.65674 32.8113 4.65674 30.9598C4.65674 29.1084 5.27388 27.5656 6.50817 26.3313C7.74245 25.097 9.28531 24.4798 11.1367 24.4798C12.371 24.4798 13.4253 24.7027 14.2996 25.1484C15.1739 25.5941 15.8339 26.0227 16.2796 26.4341L26.4625 16.2513C26.0853 15.8056 25.6653 15.1456 25.2025 14.2713C24.7396 13.397 24.5082 12.3427 24.5082 11.1084C24.5082 9.25699 25.1253 7.71413 26.3596 6.47985C27.5939 5.24556 29.1367 4.62842 30.9882 4.62842C32.8396 4.62842 34.3825 5.24556 35.6167 6.47985C36.851 7.71413 37.4682 9.25699 37.4682 11.1084C37.4682 11.3827 37.4425 11.7513 37.391 12.2141C37.3396 12.677 37.3482 12.9427 37.4167 13.0113C37.4853 13.0798 37.751 13.0884 38.2139 13.037C38.6767 12.9856 39.0453 12.9598 39.3196 12.9598C41.171 12.9598 42.7139 13.577 43.9482 14.8113C45.1825 16.0456 45.7996 17.5884 45.7996 19.4398C45.7996 21.2913 45.1825 22.8341 43.9482 24.0684C42.7139 25.3027 41.171 25.9198 39.3196 25.9198C38.0853 25.9198 37.031 25.6884 36.1567 25.2256C35.2825 24.7627 34.6225 24.3427 34.1767 23.9656L23.9939 34.1484C24.4053 34.5941 24.8339 35.2541 25.2796 36.1284C25.7253 37.0027 25.9482 38.057 25.9482 39.2913C25.9482 41.1427 25.331 42.6856 24.0967 43.9198C22.8625 45.1541 21.3196 45.7713 19.4682 45.7713Z" fill="#008F80"/>
</svg>
