<svg width="55" height="53" viewBox="0 0 55 53" fill="none" xmlns="http://www.w3.org/2000/svg">
<path d="M10.2491 25.9282C8.84291 25.9282 7.65696 25.4552 6.69125 24.5091C5.72553 23.5631 5.24268 22.405 5.24268 21.0349C5.24268 19.6647 5.72815 18.5092 6.6991 17.5682C7.67005 16.6273 8.85863 16.1568 10.2648 16.1568C11.671 16.1568 12.857 16.6298 13.8227 17.5759C14.7884 18.5219 15.2712 19.68 15.2712 21.0502C15.2712 22.4203 14.7858 23.5758 13.8148 24.5168C12.8439 25.4577 11.6553 25.9282 10.2491 25.9282ZM20.5562 16.6997C19.1501 16.6997 17.9641 16.2266 16.9984 15.2806C16.0327 14.3345 15.5498 13.1764 15.5498 11.8063C15.5498 10.4361 16.0353 9.2806 17.0062 8.33965C17.9772 7.3987 19.1658 6.92822 20.572 6.92822C21.9782 6.92822 23.1641 7.40125 24.1298 8.34731C25.0955 9.29336 25.5784 10.4515 25.5784 11.8216C25.5784 13.1917 25.0929 14.3473 24.122 15.2882C23.151 16.2292 21.9624 16.6997 20.5562 16.6997ZM34.4848 16.6997C33.0786 16.6997 31.8927 16.2266 30.927 15.2806C29.9612 14.3345 29.4784 13.1764 29.4784 11.8063C29.4784 10.4361 29.9639 9.2806 30.9348 8.33965C31.9058 7.3987 33.0943 6.92822 34.5005 6.92822C35.9067 6.92822 37.0927 7.40125 38.0584 8.34731C39.0241 9.29336 39.507 10.4515 39.507 11.8216C39.507 13.1917 39.0215 14.3473 38.0505 15.2882C37.0796 16.2292 35.891 16.6997 34.4848 16.6997ZM44.792 25.9282C43.3858 25.9282 42.1998 25.4552 41.2341 24.5091C40.2684 23.5631 39.7855 22.405 39.7855 21.0349C39.7855 19.6647 40.271 18.5092 41.242 17.5682C42.2129 16.6273 43.4015 16.1568 44.8077 16.1568C46.2139 16.1568 47.3998 16.6298 48.3655 17.5759C49.3312 18.5219 49.8141 19.68 49.8141 21.0502C49.8141 22.4203 49.3286 23.5758 48.3577 24.5168C47.3867 25.4577 46.1982 25.9282 44.792 25.9282ZM15.6055 48.1854C14.0455 48.1854 12.7641 47.6149 11.7612 46.474C10.7584 45.333 10.257 43.9854 10.257 42.4311C10.257 40.9111 10.7305 39.563 11.6777 38.3868C12.6248 37.2106 13.637 36.0797 14.7141 34.9939C15.5312 34.1977 16.2927 33.3563 16.9984 32.4697C17.7041 31.583 18.3727 30.6692 19.0041 29.7282C20.0812 28.1358 21.2884 26.652 22.6255 25.2768C23.9627 23.9016 25.597 23.2139 27.5284 23.2139C29.4598 23.2139 31.1034 23.9016 32.4591 25.2768C33.8148 26.652 35.0312 28.1539 36.1084 29.7825C36.7398 30.7235 37.3991 31.6282 38.0862 32.4968C38.7734 33.3654 39.5255 34.1977 40.3427 34.9939C41.4198 36.0797 42.432 37.2106 43.3791 38.3868C44.3262 39.563 44.7998 40.9111 44.7998 42.4311C44.7998 43.9854 44.2984 45.333 43.2955 46.474C42.2927 47.6149 41.0112 48.1854 39.4512 48.1854C37.4455 48.1854 35.4584 48.0225 33.4898 47.6968C31.5212 47.3711 29.5341 47.2082 27.5284 47.2082C25.5227 47.2082 23.5355 47.3711 21.567 47.6968C19.5984 48.0225 17.6112 48.1854 15.6055 48.1854Z" fill="white"/>
</svg>
