<svg width="24" height="24" viewBox="0 0 24 24" fill="none" xmlns="http://www.w3.org/2000/svg">
<path d="M22.4595 6C21.6895 6.35 20.8596 6.58 19.9995 6.69C20.8795 6.16 21.5596 5.32 21.8796 4.31C21.0496 4.81 20.1295 5.16 19.1595 5.36C18.3695 4.5 17.2596 4 15.9996 4C13.6496 4 11.7296 5.92 11.7296 8.29C11.7296 8.63 11.7696 8.96 11.8396 9.27C8.27955 9.09 5.10955 7.38 2.99955 4.79C2.62955 5.42 2.41955 6.16 2.41955 6.94C2.41955 8.43 3.16955 9.75 4.32955 10.5C3.61955 10.5 2.95955 10.3 2.37955 10C2.37955 10 2.37955 10 2.37955 10.03C2.37955 12.11 3.85955 13.85 5.81955 14.24C5.45955 14.34 5.07955 14.39 4.68955 14.39C4.41955 14.39 4.14955 14.36 3.88955 14.31C4.42955 16 5.99955 17.26 7.88955 17.29C6.42955 18.45 4.57955 19.13 2.55955 19.13C2.21955 19.13 1.87955 19.11 1.53955 19.07C3.43955 20.29 5.69955 21 8.11955 21C15.9996 21 20.3296 14.46 20.3296 8.79C20.3296 8.6 20.3295 8.42 20.3195 8.23C21.1595 7.63 21.8795 6.87 22.4595 6Z" fill="#2EC5B6"/>
</svg>
